# File created by Blade
# Date/Time:  Tue Apr 07 21:12:38 2015
# Frame Rate: 120.000 fps
#------------------------------------------------------
:FULLY-SPECIFIED
:DEGREES
1175
root 5.856154 26.637728 9.883560 734.194432 -67.761991 -490.058165
Spine -71.061321 -23.995842 6.209347
Head -84.450417 7.058088 10.612388
LeftShoulder -17.245201 0.903566 37.669660
LeftArm 161.153160 -27.439067 -132.970034
LeftForeArm 34.350254 -0.000000 114.028323
LeftHand -13.814747 0.000000 -11.091217
LeftHandThumb1 -26.253704 0.000000 33.147579
RightShoulder -25.034258 61.925802 -54.236135
RightArm 86.211033 48.024224 90.255094
RightForeArm -26.629701 -0.000000 116.688402
RightHand -6.163861 0.000000 12.303516
RightHandThumb1 -24.326973 -0.000000 -32.862282
LeftUpLeg 16.989786 -6.165320 21.378618
LeftLeg 23.849947 -0.000000 -0.000000
LeftFoot 42.805880 10.129068 2.625855
LeftToeBase 107.681448 -0.000000 -0.000000
RightUpLeg -111.965850 -27.537561 2.127334
RightLeg 132.879126 -0.000000 -0.000000
RightFoot 49.270745 3.484731 -1.713880
RightToeBase 36.859270 -0.000000 -0.000000
1176
root 5.848843 26.640846 9.882064 734.118254 -67.766198 -490.009927
Spine -71.027554 -24.034715 6.245244
Head -84.469885 7.205670 10.639190
LeftShoulder -17.264428 0.983938 37.681067
LeftArm 161.252575 -27.442382 -133.037061
LeftForeArm 34.336362 -0.000000 114.018028
LeftHand -13.732034 0.000000 -10.831186
LeftHandThumb1 -26.253704 0.000000 33.147579
RightShoulder -24.903764 61.893759 -54.127288
RightArm 86.350508 48.063686 90.393222
RightForeArm -26.637394 -0.000000 116.741221
RightHand -6.193269 -0.000000 12.354389
RightHandThumb1 -24.326973 -0.000000 -32.862282
LeftUpLeg 17.040208 -6.160561 21.420872
LeftLeg 23.871547 -0.000000 -0.000000
LeftFoot 42.760461 10.199356 2.619278
LeftToeBase 107.738913 -0.000000 -0.000000
RightUpLeg -111.894219 -27.525528 2.157937
RightLeg 132.883741 -0.000000 -0.000000
RightFoot 49.286836 3.502521 -1.680371
RightToeBase 36.893889 -0.000000 -0.000000
1177
root 5.840919 26.641518 9.880937 733.989721 -67.777453 -489.895808
Spine -70.993062 -24.075381 6.236457
Head -84.471021 7.313140 10.658867
LeftShoulder -17.265523 0.990035 37.691325
LeftArm 161.310564 -27.513182 -133.040286
LeftForeArm 34.217444 -0.000000 113.997353
LeftHand -13.779902 -0.000000 -10.542242
LeftHandThumb1 -26.253704 0.000000 33.147579
RightShoulder -24.843557 61.872362 -54.048007
RightArm 86.434647 48.056671 90.475146
RightForeArm -26.735791 -0.000000 116.764651
RightHand -6.170354 -0.000000 12.318877
RightHandThumb1 -24.326973 -0.000000 -32.862282
LeftUpLeg 17.073524 -6.162569 21.423839
LeftLeg 23.908993 -0.000000 -0.000000
LeftFoot 42.757356 10.223621 2.674981
LeftToeBase 107.530256 -0.000000 -0.000000
RightUpLeg -111.839715 -27.509221 2.176878
RightLeg 132.898589 -0.000000 -0.000000
RightFoot 49.286077 3.559323 -1.732632
RightToeBase 36.866144 -0.000000 -0.000000
1178
root 5.832902 26.643046 9.879669 733.887310 -67.796196 -489.813475
Spine -70.962723 -24.117256 6.254040
Head -84.444261 7.425212 10.689246
LeftShoulder -17.255031 0.976837 37.717513
LeftArm 161.383489 -27.596418 -133.046404
LeftForeArm 34.250238 -0.000000 113.975464
LeftHand -13.772563 -0.000000 -10.510799
LeftHandThumb1 -26.253704 0.000000 33.147579
RightShoulder -24.676391 61.851479 -53.846719
RightArm 86.571794 48.068737 90.535042
RightForeArm -26.790268 -0.000000 116.780897
RightHand -6.204273 -0.000000 12.363188
RightHandThumb1 -24.326973 -0.000000 -32.862282
LeftUpLeg 17.122521 -6.171979 21.434949
LeftLeg 23.939683 -0.000000 -0.000000
LeftFoot 42.748062 10.225559 2.657162
LeftToeBase 107.582712 -0.000000 -0.000000
RightUpLeg -111.771536 -27.488782 2.196282
RightLeg 132.912250 -0.000000 -0.000000
RightFoot 49.276009 3.634388 -1.791336
RightToeBase 37.075583 -0.000000 -0.000000
1179
root 5.825895 26.633198 9.880240 733.773780 -67.816101 -489.547650
Spine -71.130244 -24.145068 6.270246
Head -84.350333 7.465286 10.738864
LeftShoulder -17.214192 0.897203 37.784047
LeftArm 161.412940 -27.763464 -133.083349
LeftForeArm 34.209121 -0.000000 113.942685
LeftHand -13.805914 -0.000000 -10.494416
LeftHandThumb1 -26.253704 0.000000 33.147579
RightShoulder -24.632814 61.907250 -53.816346
RightArm 86.511470 48.108118 90.513734
RightForeArm -26.820245 -0.000000 116.808063
RightHand -6.202291 -0.000000 12.402672
RightHandThumb1 -24.326973 -0.000000 -32.862282
LeftUpLeg 16.993378 -6.188129 21.351054
LeftLeg 23.968475 -0.000000 -0.000000
LeftFoot 42.763186 10.220337 2.684832
LeftToeBase 107.664594 -0.000000 -0.000000
RightUpLeg -111.870919 -27.476571 2.223952
RightLeg 132.876431 -0.000000 -0.000000
RightFoot 49.327697 3.652175 -1.770795
RightToeBase 36.974304 -0.000000 -0.000000
